<svg width="542" height="259" viewBox="0 0 542 259" fill="none" xmlns="http://www.w3.org/2000/svg">
<mask id="mask0" mask-type="alpha" maskUnits="userSpaceOnUse" x="0" y="0" width="542" height="259">
<rect width="542" height="259" fill="#C4C4C4"/>
</mask>
<g mask="url(#mask0)">
<g filter="url(#filter0_d)">
<rect x="33" y="-1" width="270" height="558" rx="36" fill="#E8DFE0"/>
<path d="M42 43C42 23.1177 58.1178 7 78 7H258C277.882 7 294 23.1177 294 43V510C294 529.882 277.882 546 258 546H78C58.1177 546 42 529.882 42 510V43Z" fill="#FF3B3D"/>
<path d="M115.896 27.497C103.334 26.586 101.471 13.4528 102.109 7H235C235 23.7013 225.426 27.244 221.596 27.497C191.597 27.8766 128.457 28.408 115.896 27.497Z" fill="#0E0A19"/>
<circle cx="204" cy="17" r="4" fill="white"/>
</g>
</g>
<path d="M184 136C187.667 138.264 197.2 141.433 206 136" stroke="white" stroke-width="8"/>
<path d="M73.968 95V78.248H81.504C82.272 78.248 82.96 78.376 83.568 78.632C84.192 78.872 84.72 79.224 85.152 79.688C85.584 80.136 85.912 80.68 86.136 81.32C86.36 81.96 86.472 82.664 86.472 83.432C86.472 84.216 86.36 84.928 86.136 85.568C85.912 86.192 85.584 86.736 85.152 87.2C84.72 87.648 84.192 88 83.568 88.256C82.96 88.496 82.272 88.616 81.504 88.616H77.136V95H73.968ZM77.136 85.88H81.216C81.824 85.88 82.304 85.72 82.656 85.4C83.008 85.064 83.184 84.592 83.184 83.984V82.88C83.184 82.272 83.008 81.808 82.656 81.488C82.304 81.168 81.824 81.008 81.216 81.008H77.136V85.88ZM98.0389 95C97.3669 95 96.8309 94.808 96.4309 94.424C96.0469 94.024 95.8069 93.496 95.7109 92.84H95.5669C95.3589 93.656 94.9349 94.272 94.2949 94.688C93.6549 95.088 92.8629 95.288 91.9189 95.288C90.6389 95.288 89.6549 94.952 88.9669 94.28C88.2789 93.608 87.9349 92.712 87.9349 91.592C87.9349 90.296 88.3989 89.336 89.3269 88.712C90.2549 88.072 91.5749 87.752 93.2869 87.752H95.4229V86.84C95.4229 86.136 95.2389 85.592 94.8709 85.208C94.5029 84.824 93.9109 84.632 93.0949 84.632C92.3749 84.632 91.7909 84.792 91.3429 85.112C90.9109 85.416 90.5429 85.784 90.2389 86.216L88.4149 84.584C88.8789 83.864 89.4949 83.288 90.2629 82.856C91.0309 82.408 92.0469 82.184 93.3109 82.184C95.0069 82.184 96.2949 82.568 97.1749 83.336C98.0549 84.104 98.4949 85.208 98.4949 86.648V92.552H99.7429V95H98.0389ZM92.9509 93.056C93.6389 93.056 94.2229 92.904 94.7029 92.6C95.1829 92.296 95.4229 91.848 95.4229 91.256V89.6H93.4549C91.8549 89.6 91.0549 90.112 91.0549 91.136V91.544C91.0549 92.056 91.2149 92.44 91.5349 92.696C91.8709 92.936 92.3429 93.056 92.9509 93.056ZM107.173 95.288C106.245 95.288 105.421 95.136 104.701 94.832C103.981 94.528 103.373 94.088 102.877 93.512C102.397 92.936 102.029 92.248 101.773 91.448C101.517 90.632 101.389 89.72 101.389 88.712C101.389 87.704 101.517 86.8 101.773 86C102.029 85.2 102.397 84.52 102.877 83.96C103.373 83.384 103.981 82.944 104.701 82.64C105.421 82.336 106.245 82.184 107.173 82.184C108.437 82.184 109.477 82.464 110.293 83.024C111.125 83.584 111.725 84.36 112.093 85.352L109.573 86.48C109.429 85.952 109.157 85.52 108.757 85.184C108.373 84.832 107.845 84.656 107.173 84.656C106.309 84.656 105.661 84.928 105.229 85.472C104.813 86.016 104.605 86.728 104.605 87.608V89.888C104.605 90.768 104.813 91.48 105.229 92.024C105.661 92.552 106.309 92.816 107.173 92.816C107.909 92.816 108.477 92.632 108.877 92.264C109.277 91.88 109.589 91.408 109.813 90.848L112.165 91.976C111.749 93.08 111.117 93.912 110.269 94.472C109.421 95.016 108.389 95.288 107.173 95.288ZM121.518 89.552H121.398C121.078 90.032 120.646 90.424 120.102 90.728C119.558 91.016 118.862 91.16 118.014 91.16C115.31 91.16 113.958 89.728 113.958 86.864V82.472H117.03V86.696C117.03 87.368 117.198 87.856 117.534 88.16C117.87 88.464 118.406 88.616 119.142 88.616C119.894 88.616 120.478 88.496 120.894 88.256C121.31 88.016 121.518 87.688 121.518 87.272V82.472H124.59V95H121.518V89.552ZM133.215 95.288C132.287 95.288 131.455 95.136 130.719 94.832C129.999 94.512 129.383 94.072 128.871 93.512C128.375 92.936 127.991 92.248 127.719 91.448C127.447 90.632 127.311 89.72 127.311 88.712C127.311 87.72 127.439 86.824 127.695 86.024C127.967 85.224 128.351 84.544 128.847 83.984C129.343 83.408 129.951 82.968 130.671 82.664C131.391 82.344 132.207 82.184 133.119 82.184C134.095 82.184 134.943 82.352 135.663 82.688C136.383 83.024 136.975 83.48 137.439 84.056C137.903 84.632 138.247 85.304 138.471 86.072C138.711 86.824 138.831 87.632 138.831 88.496V89.504H130.503V89.816C130.503 90.728 130.759 91.464 131.271 92.024C131.783 92.568 132.543 92.84 133.551 92.84C134.319 92.84 134.943 92.68 135.423 92.36C135.919 92.04 136.359 91.632 136.743 91.136L138.399 92.984C137.887 93.704 137.183 94.272 136.287 94.688C135.407 95.088 134.383 95.288 133.215 95.288ZM133.167 84.488C132.351 84.488 131.703 84.76 131.223 85.304C130.743 85.848 130.503 86.552 130.503 87.416V87.608H135.639V87.392C135.639 86.528 135.423 85.832 134.991 85.304C134.575 84.76 133.967 84.488 133.167 84.488ZM143.89 84.92H140.074V82.472H150.778V84.92H146.962V95H143.89V84.92ZM73.776 107.472H80.664C81.784 107.472 82.64 107.76 83.232 108.336C83.824 108.896 84.12 109.656 84.12 110.616C84.12 112.2 83.256 113.112 81.528 113.352V113.448C82.552 113.544 83.32 113.84 83.832 114.336C84.344 114.832 84.6 115.496 84.6 116.328C84.6 117.416 84.264 118.304 83.592 118.992C82.92 119.664 81.984 120 80.784 120H73.776V107.472ZM80.16 117.768C80.576 117.768 80.896 117.664 81.12 117.456C81.344 117.232 81.456 116.92 81.456 116.52V115.848C81.456 115.448 81.344 115.144 81.12 114.936C80.896 114.712 80.576 114.6 80.16 114.6H76.776V117.768H80.16ZM79.8 112.656C80.168 112.656 80.456 112.552 80.664 112.344C80.888 112.136 81 111.848 81 111.48V110.88C81 110.512 80.888 110.224 80.664 110.016C80.456 109.808 80.168 109.704 79.8 109.704H76.776V112.656H79.8ZM96.6795 120C96.0075 120 95.4715 119.808 95.0715 119.424C94.6875 119.024 94.4475 118.496 94.3515 117.84H94.2075C93.9995 118.656 93.5755 119.272 92.9355 119.688C92.2955 120.088 91.5035 120.288 90.5595 120.288C89.2795 120.288 88.2955 119.952 87.6075 119.28C86.9195 118.608 86.5755 117.712 86.5755 116.592C86.5755 115.296 87.0395 114.336 87.9675 113.712C88.8955 113.072 90.2155 112.752 91.9275 112.752H94.0635V111.84C94.0635 111.136 93.8795 110.592 93.5115 110.208C93.1435 109.824 92.5515 109.632 91.7355 109.632C91.0155 109.632 90.4315 109.792 89.9835 110.112C89.5515 110.416 89.1835 110.784 88.8795 111.216L87.0555 109.584C87.5195 108.864 88.1355 108.288 88.9035 107.856C89.6715 107.408 90.6875 107.184 91.9515 107.184C93.6475 107.184 94.9355 107.568 95.8155 108.336C96.6955 109.104 97.1355 110.208 97.1355 111.648V117.552H98.3835V120H96.6795ZM91.5915 118.056C92.2795 118.056 92.8635 117.904 93.3435 117.6C93.8235 117.296 94.0635 116.848 94.0635 116.256V114.6H92.0955C90.4955 114.6 89.6955 115.112 89.6955 116.136V116.544C89.6955 117.056 89.8555 117.44 90.1755 117.696C90.5115 117.936 90.9835 118.056 91.5915 118.056ZM100.87 107.472H103.942V117.552H107.518V107.472H110.59V117.552H114.166V107.472H117.238V120H100.87V107.472ZM125.856 120.288C124.928 120.288 124.096 120.136 123.36 119.832C122.64 119.512 122.024 119.072 121.512 118.512C121.016 117.936 120.632 117.248 120.36 116.448C120.088 115.632 119.952 114.72 119.952 113.712C119.952 112.72 120.08 111.824 120.336 111.024C120.608 110.224 120.992 109.544 121.488 108.984C121.984 108.408 122.592 107.968 123.312 107.664C124.032 107.344 124.848 107.184 125.76 107.184C126.736 107.184 127.584 107.352 128.304 107.688C129.024 108.024 129.616 108.48 130.08 109.056C130.544 109.632 130.888 110.304 131.112 111.072C131.352 111.824 131.472 112.632 131.472 113.496V114.504H123.144V114.816C123.144 115.728 123.4 116.464 123.912 117.024C124.424 117.568 125.184 117.84 126.192 117.84C126.96 117.84 127.584 117.68 128.064 117.36C128.56 117.04 129 116.632 129.384 116.136L131.04 117.984C130.528 118.704 129.824 119.272 128.928 119.688C128.048 120.088 127.024 120.288 125.856 120.288ZM125.808 109.488C124.992 109.488 124.344 109.76 123.864 110.304C123.384 110.848 123.144 111.552 123.144 112.416V112.608H128.28V112.392C128.28 111.528 128.064 110.832 127.632 110.304C127.216 109.76 126.608 109.488 125.808 109.488ZM134.174 107.472H137.174V113.064L136.91 115.992H137.006L138.47 113.328L142.382 107.472H145.142V120H142.142V114.408L142.406 111.456H142.31L140.846 114.144L136.934 120H134.174V107.472ZM139.67 105.984C138.662 105.984 137.854 105.776 137.246 105.36C136.638 104.928 136.158 104.32 135.806 103.536L135.302 102.408L137.75 101.448L138.542 103.752C138.67 103.8 138.838 103.84 139.046 103.872C139.254 103.888 139.462 103.896 139.67 103.896C139.878 103.896 140.086 103.888 140.294 103.872C140.502 103.84 140.67 103.8 140.798 103.752L141.59 101.448L144.038 102.408L143.534 103.536C143.182 104.32 142.702 104.928 142.094 105.36C141.486 105.776 140.678 105.984 139.67 105.984ZM73.776 132.472H76.848V137.392H78.864L80.76 134.104C81.112 133.496 81.472 133.072 81.84 132.832C82.208 132.592 82.696 132.472 83.304 132.472H84.672V134.92H83.328L82.008 137.224C81.784 137.64 81.568 137.936 81.36 138.112C81.152 138.272 80.904 138.392 80.616 138.472V138.592C80.904 138.656 81.16 138.768 81.384 138.928C81.624 139.088 81.856 139.368 82.08 139.768L83.64 142.552H84.96V145H83.4C82.792 145 82.288 144.872 81.888 144.616C81.504 144.36 81.136 143.92 80.784 143.296L78.864 139.816H76.848V145H73.776V132.472ZM92.3378 145.288C91.4418 145.288 90.6338 145.136 89.9138 144.832C89.2098 144.528 88.6018 144.088 88.0898 143.512C87.5938 142.936 87.2098 142.248 86.9378 141.448C86.6658 140.632 86.5298 139.72 86.5298 138.712C86.5298 137.704 86.6658 136.8 86.9378 136C87.2098 135.2 87.5938 134.52 88.0898 133.96C88.6018 133.384 89.2098 132.944 89.9138 132.64C90.6338 132.336 91.4418 132.184 92.3378 132.184C93.2338 132.184 94.0418 132.336 94.7618 132.64C95.4818 132.944 96.0898 133.384 96.5858 133.96C97.0978 134.52 97.4898 135.2 97.7618 136C98.0338 136.8 98.1698 137.704 98.1698 138.712C98.1698 139.72 98.0338 140.632 97.7618 141.448C97.4898 142.248 97.0978 142.936 96.5858 143.512C96.0898 144.088 95.4818 144.528 94.7618 144.832C94.0418 145.136 93.2338 145.288 92.3378 145.288ZM92.3378 142.816C93.1538 142.816 93.7938 142.568 94.2578 142.072C94.7218 141.576 94.9538 140.848 94.9538 139.888V137.56C94.9538 136.616 94.7218 135.896 94.2578 135.4C93.7938 134.904 93.1538 134.656 92.3378 134.656C91.5378 134.656 90.9058 134.904 90.4418 135.4C89.9778 135.896 89.7458 136.616 89.7458 137.56V139.888C89.7458 140.848 89.9778 141.576 90.4418 142.072C90.9058 142.568 91.5378 142.816 92.3378 142.816ZM100.893 132.472H104.421L107.733 137.992H107.829L111.093 132.472H114.525V145H111.549V136.264H111.453L110.589 137.896L107.709 142.648L104.829 137.896L103.965 136.264H103.869V145H100.893V132.472ZM118.073 132.472H121.145V137.392H125.969V132.472H129.041V145H125.969V139.84H121.145V145H118.073V132.472ZM141.82 145C141.148 145 140.612 144.808 140.212 144.424C139.828 144.024 139.588 143.496 139.492 142.84H139.348C139.14 143.656 138.716 144.272 138.076 144.688C137.436 145.088 136.644 145.288 135.7 145.288C134.42 145.288 133.436 144.952 132.748 144.28C132.06 143.608 131.716 142.712 131.716 141.592C131.716 140.296 132.18 139.336 133.108 138.712C134.036 138.072 135.356 137.752 137.068 137.752H139.204V136.84C139.204 136.136 139.02 135.592 138.652 135.208C138.284 134.824 137.692 134.632 136.876 134.632C136.156 134.632 135.572 134.792 135.124 135.112C134.692 135.416 134.324 135.784 134.02 136.216L132.196 134.584C132.66 133.864 133.276 133.288 134.044 132.856C134.812 132.408 135.828 132.184 137.092 132.184C138.788 132.184 140.076 132.568 140.956 133.336C141.836 134.104 142.276 135.208 142.276 136.648V142.552H143.524V145H141.82ZM136.732 143.056C137.42 143.056 138.004 142.904 138.484 142.6C138.964 142.296 139.204 141.848 139.204 141.256V139.6H137.236C135.636 139.6 134.836 140.112 134.836 141.136V141.544C134.836 142.056 134.996 142.44 135.316 142.696C135.652 142.936 136.124 143.056 136.732 143.056ZM148.109 134.92H144.293V132.472H154.997V134.92H151.181V145H148.109V134.92ZM157.26 132.472H160.332V136.432H163.452C164.06 136.432 164.62 136.528 165.132 136.72C165.66 136.912 166.108 137.192 166.476 137.56C166.86 137.912 167.156 138.352 167.364 138.88C167.588 139.408 167.7 140.016 167.7 140.704C167.7 141.392 167.596 142.008 167.388 142.552C167.18 143.08 166.884 143.528 166.5 143.896C166.132 144.248 165.684 144.52 165.156 144.712C164.644 144.904 164.076 145 163.452 145H157.26V132.472ZM162.828 142.72C163.372 142.72 163.796 142.592 164.1 142.336C164.42 142.08 164.58 141.696 164.58 141.184V140.248C164.58 139.736 164.42 139.352 164.1 139.096C163.796 138.84 163.372 138.712 162.828 138.712H160.332V142.72H162.828ZM169.452 132.472H172.524V145H169.452V132.472Z" fill="white"/>
<path d="M73 177.769L84.8125 171L96.625 177.769L108.438 171L120.25 177.769L132.062 171L143.875 177.769L155.688 171L167.5 177.769L179.312 171L191.125 177.769L202.938 171L214.75 177.769L226.562 171L238.375 177.769L250.188 171L262 177.769V259H73V177.769Z" fill="url(#paint0_radial)"/>
<path d="M126.104 227H114.488V224.072L119.744 219.464C120.64 218.68 121.296 217.976 121.712 217.352C122.128 216.712 122.336 216.024 122.336 215.288V214.976C122.336 214.24 122.096 213.68 121.616 213.296C121.136 212.896 120.552 212.696 119.864 212.696C119 212.696 118.344 212.944 117.896 213.44C117.448 213.92 117.128 214.504 116.936 215.192L114.2 214.136C114.376 213.576 114.624 213.048 114.944 212.552C115.264 212.04 115.664 211.592 116.144 211.208C116.64 210.824 117.216 210.52 117.872 210.296C118.528 210.072 119.28 209.96 120.128 209.96C121.008 209.96 121.792 210.088 122.48 210.344C123.168 210.584 123.744 210.928 124.208 211.376C124.688 211.824 125.048 212.352 125.288 212.96C125.544 213.568 125.672 214.232 125.672 214.952C125.672 215.656 125.56 216.296 125.336 216.872C125.112 217.448 124.808 218 124.424 218.528C124.04 219.04 123.592 219.536 123.08 220.016C122.568 220.48 122.024 220.952 121.448 221.432L117.92 224.336H126.104V227ZM134.591 227.288C133.615 227.288 132.743 227.168 131.975 226.928C131.223 226.672 130.583 226.328 130.055 225.896C129.543 225.464 129.151 224.952 128.879 224.36C128.607 223.768 128.471 223.12 128.471 222.416C128.471 221.328 128.767 220.448 129.359 219.776C129.967 219.088 130.775 218.608 131.783 218.336V218.144C130.951 217.84 130.271 217.368 129.743 216.728C129.231 216.088 128.975 215.28 128.975 214.304C128.975 213.664 129.095 213.08 129.335 212.552C129.591 212.024 129.959 211.568 130.439 211.184C130.919 210.8 131.503 210.504 132.191 210.296C132.895 210.072 133.695 209.96 134.591 209.96C135.487 209.96 136.279 210.072 136.967 210.296C137.671 210.504 138.263 210.8 138.743 211.184C139.223 211.568 139.583 212.024 139.823 212.552C140.079 213.08 140.207 213.664 140.207 214.304C140.207 215.28 139.943 216.088 139.415 216.728C138.903 217.368 138.231 217.84 137.399 218.144V218.336C138.407 218.608 139.207 219.088 139.799 219.776C140.407 220.448 140.711 221.328 140.711 222.416C140.711 223.12 140.575 223.768 140.303 224.36C140.031 224.952 139.631 225.464 139.103 225.896C138.591 226.328 137.951 226.672 137.183 226.928C136.431 227.168 135.567 227.288 134.591 227.288ZM134.591 224.816C135.503 224.816 136.199 224.608 136.679 224.192C137.175 223.776 137.423 223.192 137.423 222.44V221.936C137.423 221.184 137.175 220.6 136.679 220.184C136.199 219.768 135.503 219.56 134.591 219.56C133.679 219.56 132.975 219.768 132.479 220.184C131.999 220.6 131.759 221.184 131.759 221.936V222.44C131.759 223.192 131.999 223.776 132.479 224.192C132.975 224.608 133.679 224.816 134.591 224.816ZM134.591 217.208C135.439 217.208 136.087 217.016 136.535 216.632C136.983 216.248 137.207 215.704 137.207 215V214.616C137.207 213.928 136.983 213.392 136.535 213.008C136.087 212.624 135.439 212.432 134.591 212.432C133.743 212.432 133.095 212.624 132.647 213.008C132.199 213.392 131.975 213.928 131.975 214.616V215C131.975 215.704 132.199 216.248 132.647 216.632C133.095 217.016 133.743 217.208 134.591 217.208ZM154.653 227.288C153.581 227.288 152.653 227.096 151.869 226.712C151.085 226.312 150.437 225.744 149.925 225.008C149.413 224.272 149.029 223.368 148.773 222.296C148.533 221.224 148.413 220 148.413 218.624C148.413 217.264 148.533 216.048 148.773 214.976C149.029 213.888 149.413 212.976 149.925 212.24C150.437 211.504 151.085 210.944 151.869 210.56C152.653 210.16 153.581 209.96 154.653 209.96C156.781 209.96 158.349 210.72 159.357 212.24C160.381 213.76 160.893 215.888 160.893 218.624C160.893 221.36 160.381 223.488 159.357 225.008C158.349 226.528 156.781 227.288 154.653 227.288ZM154.653 224.624C155.725 224.624 156.469 224.224 156.885 223.424C157.317 222.608 157.533 221.512 157.533 220.136V217.112C157.533 215.736 157.317 214.648 156.885 213.848C156.469 213.032 155.725 212.624 154.653 212.624C153.581 212.624 152.829 213.032 152.397 213.848C151.981 214.648 151.773 215.736 151.773 217.112V220.136C151.773 221.512 151.981 222.608 152.397 223.424C152.829 224.224 153.581 224.624 154.653 224.624ZM169.044 227.288C167.972 227.288 167.044 227.096 166.26 226.712C165.476 226.312 164.828 225.744 164.316 225.008C163.804 224.272 163.42 223.368 163.164 222.296C162.924 221.224 162.804 220 162.804 218.624C162.804 217.264 162.924 216.048 163.164 214.976C163.42 213.888 163.804 212.976 164.316 212.24C164.828 211.504 165.476 210.944 166.26 210.56C167.044 210.16 167.972 209.96 169.044 209.96C171.172 209.96 172.74 210.72 173.748 212.24C174.772 213.76 175.284 215.888 175.284 218.624C175.284 221.36 174.772 223.488 173.748 225.008C172.74 226.528 171.172 227.288 169.044 227.288ZM169.044 224.624C170.116 224.624 170.86 224.224 171.276 223.424C171.708 222.608 171.924 221.512 171.924 220.136V217.112C171.924 215.736 171.708 214.648 171.276 213.848C170.86 213.032 170.116 212.624 169.044 212.624C167.972 212.624 167.22 213.032 166.788 213.848C166.372 214.648 166.164 215.736 166.164 217.112V220.136C166.164 221.512 166.372 222.608 166.788 223.424C167.22 224.224 167.972 224.624 169.044 224.624ZM183.434 227.288C182.362 227.288 181.434 227.096 180.65 226.712C179.866 226.312 179.218 225.744 178.706 225.008C178.194 224.272 177.81 223.368 177.554 222.296C177.314 221.224 177.194 220 177.194 218.624C177.194 217.264 177.314 216.048 177.554 214.976C177.81 213.888 178.194 212.976 178.706 212.24C179.218 211.504 179.866 210.944 180.65 210.56C181.434 210.16 182.362 209.96 183.434 209.96C185.562 209.96 187.13 210.72 188.138 212.24C189.162 213.76 189.674 215.888 189.674 218.624C189.674 221.36 189.162 223.488 188.138 225.008C187.13 226.528 185.562 227.288 183.434 227.288ZM183.434 224.624C184.506 224.624 185.25 224.224 185.666 223.424C186.098 222.608 186.314 221.512 186.314 220.136V217.112C186.314 215.736 186.098 214.648 185.666 213.848C185.25 213.032 184.506 212.624 183.434 212.624C182.362 212.624 181.61 213.032 181.178 213.848C180.762 214.648 180.554 215.736 180.554 217.112V220.136C180.554 221.512 180.762 222.608 181.178 223.424C181.61 224.224 182.362 224.624 183.434 224.624ZM198.073 214.472H201.145V216.536H201.241C201.465 215.816 201.889 215.248 202.513 214.832C203.137 214.4 203.865 214.184 204.697 214.184C206.297 214.184 207.513 214.752 208.345 215.888C209.193 217.008 209.617 218.616 209.617 220.712C209.617 222.824 209.193 224.448 208.345 225.584C207.513 226.72 206.297 227.288 204.697 227.288C203.865 227.288 203.137 227.072 202.513 226.64C201.905 226.208 201.481 225.632 201.241 224.912H201.145V231.8H198.073V214.472ZM203.713 224.744C204.513 224.744 205.161 224.48 205.657 223.952C206.153 223.424 206.401 222.712 206.401 221.816V219.656C206.401 218.76 206.153 218.048 205.657 217.52C205.161 216.976 204.513 216.704 203.713 216.704C202.977 216.704 202.361 216.888 201.865 217.256C201.385 217.624 201.145 218.112 201.145 218.72V222.704C201.145 223.36 201.385 223.864 201.865 224.216C202.361 224.568 202.977 224.744 203.713 224.744ZM213.889 227.264C213.233 227.264 212.745 227.104 212.425 226.784C212.121 226.448 211.969 226.024 211.969 225.512V225.08C211.969 224.568 212.121 224.144 212.425 223.808C212.745 223.472 213.233 223.304 213.889 223.304C214.561 223.304 215.049 223.472 215.353 223.808C215.657 224.144 215.809 224.568 215.809 225.08V225.512C215.809 226.024 215.657 226.448 215.353 226.784C215.049 227.104 214.561 227.264 213.889 227.264ZM218.876 221.216V218.168H225.74V221.216H218.876Z" fill="#FF3B3D"/>
<path d="M73 188H262" stroke="#E8DFE0" stroke-width="0.2"/>
<defs>
<filter id="filter0_d" x="-7" y="-1" width="350" height="638" filterUnits="userSpaceOnUse" color-interpolation-filters="sRGB">
<feFlood flood-opacity="0" result="BackgroundImageFix"/>
<feColorMatrix in="SourceAlpha" type="matrix" values="0 0 0 0 0 0 0 0 0 0 0 0 0 0 0 0 0 0 127 0" result="hardAlpha"/>
<feOffset dy="40"/>
<feGaussianBlur stdDeviation="20"/>
<feColorMatrix type="matrix" values="0 0 0 0 0.493457 0 0 0 0 0.534313 0 0 0 0 0.679167 0 0 0 0.25 0"/>
<feBlend mode="normal" in2="BackgroundImageFix" result="effect1_dropShadow"/>
<feBlend mode="normal" in="SourceGraphic" in2="effect1_dropShadow" result="shape"/>
</filter>
<radialGradient id="paint0_radial" cx="0" cy="0" r="1" gradientUnits="userSpaceOnUse" gradientTransform="translate(167.5 218.385) rotate(90) scale(40.6154 94.5)">
<stop stop-color="white"/>
<stop offset="1" stop-color="#F7F1F1"/>
</radialGradient>
</defs>
</svg>
